<svg width="50" height="50" viewBox="0 0 50 50" fill="none" xmlns="http://www.w3.org/2000/svg">
<path fill-rule="evenodd" clip-rule="evenodd" d="M19.5277 14.4955C22.1622 12.9717 25.3825 12.4617 28.5552 13.3286C31.7271 14.1953 34.2533 16.2746 35.7723 18.9262C37.2912 21.5777 37.8101 24.8137 36.9644 27.9995C36.1185 31.186 34.0654 33.7259 31.4312 35.2496C28.7968 36.7735 25.5764 37.2835 22.4037 36.4166L23.1945 33.5227C25.5641 34.1702 27.9614 33.7909 29.9291 32.6528C31.8969 31.5145 33.4304 29.6197 34.0649 27.2298C34.6995 24.8391 34.3122 22.4128 33.1691 20.4174C32.0262 18.4221 30.1348 16.8702 27.7644 16.2225C25.3948 15.575 22.9975 15.9542 21.0298 17.0924C19.4204 18.0234 17.6434 19.6154 17.1292 22.5517L23.6627 20.2142L24.6733 23.0389L14.7383 26.5933L10.1514 17.3511L12.8386 16.0174L14.7639 19.8966C15.8189 17.1936 17.7696 15.5125 19.5277 14.4955Z" fill="#D20000"/>
</svg>
