<svg width="422" height="196" viewBox="0 0 422 196" fill="none" xmlns="http://www.w3.org/2000/svg">
<path d="M210.948 8.89411L237.418 47.7902L239.73 51.1872L243.51 49.5775L306.264 22.8569L290.014 57.0107L286.191 65.046L295.043 64.1324L367.42 56.6624L322.862 79.2899L308.825 86.418L324.402 88.6954L387.537 97.9259L324.414 107.209L308.838 109.5L322.882 116.616L367.466 139.206L295.083 131.797L286.228 130.891L290.062 138.924L306.35 173.062L243.567 146.395L239.785 144.788L237.476 148.188L211.052 187.106L184.582 148.21L182.27 144.813L178.49 146.422L115.736 173.143L131.986 138.989L135.809 130.954L126.957 131.868L54.58 139.338L99.1383 116.71L113.175 109.582L97.5977 107.305L34.4629 98.074L97.5855 88.7907L113.162 86.4999L99.1179 79.3838L54.5344 56.7943L126.917 64.2031L135.772 65.1094L131.938 57.0759L115.65 22.9381L178.433 49.6049L182.215 51.2116L184.524 47.8115L210.948 8.89411Z" fill="#D20000" stroke="#FFF200" stroke-width="10" stroke-miterlimit="16"/>
</svg>
