<svg width="16" height="16" viewBox="0 0 16 16" fill="none" xmlns="http://www.w3.org/2000/svg">
<path d="M8.58451 9.44811C8.55634 9.7217 8.47653 9.92217 8.34507 10.0495C8.21831 10.1722 8.05634 10.2335 7.85915 10.2335C7.64789 10.2335 7.47418 10.1604 7.33803 10.0142C7.20657 9.86321 7.14085 9.61321 7.14085 9.26415V8.45047C8.28169 8.01179 8.96948 7.67453 9.20423 7.43868C9.43897 7.20283 9.55634 6.96226 9.55634 6.71698C9.55634 6.37264 9.41784 6.07547 9.14085 5.82547C8.86854 5.57547 8.48122 5.45047 7.97887 5.45047C7.44836 5.45047 6.93662 5.57311 6.44366 5.8184V6.03066C6.44366 6.375 6.37559 6.62264 6.23944 6.77358C6.10798 6.91981 5.93427 6.99292 5.71831 6.99292C5.50704 6.99292 5.33333 6.91981 5.19718 6.77358C5.06573 6.62736 5 6.37972 5 6.03066V4.86321C5.73709 4.51415 6.30986 4.28302 6.71831 4.16981C7.12676 4.0566 7.5493 4 7.98592 4C8.89671 4 9.62676 4.26415 10.1761 4.79245C10.7254 5.32075 11 5.98349 11 6.78066C11 7.3467 10.8333 7.82783 10.5 8.22406C10.1714 8.62028 9.53286 9.0283 8.58451 9.44811ZM8.88732 12.25C8.88732 12.4717 8.80751 12.6533 8.64789 12.7948C8.49296 12.9316 8.23239 13 7.8662 13C7.5 13 7.23709 12.9316 7.07746 12.7948C6.92254 12.6533 6.84507 12.4717 6.84507 12.25C6.84507 12.0283 6.92254 11.8491 7.07746 11.7123C7.23239 11.5708 7.49531 11.5 7.8662 11.5C8.23239 11.5 8.49296 11.5708 8.64789 11.7123C8.80751 11.8491 8.88732 12.0283 8.88732 12.25Z" fill="white"/>
</svg>
