<svg width="21" height="22" viewBox="0 0 21 22" fill="none" xmlns="http://www.w3.org/2000/svg">
<path d="M17.2559 18.5006L17.3523 18.6155L17.2374 18.7119L15.9389 19.8015L15.824 19.8979L15.7276 19.783L11.5948 14.8578C8.96621 16.4531 5.52986 15.9806 3.53281 13.6006C1.32214 10.966 1.71954 7.00086 4.40997 4.74332C7.10041 2.48577 11.0743 2.78296 13.285 5.41753C15.282 7.79752 15.1506 11.2637 13.1232 13.5754L17.2559 18.5006ZM5.06113 12.3182C6.57325 14.1202 9.2992 14.3301 11.1507 12.7766C13.0022 11.223 13.2688 8.50201 11.7567 6.69994C10.2446 4.89786 7.51861 4.68796 5.66713 6.24154C3.81565 7.79511 3.54901 10.5161 5.06113 12.3182Z" fill="#FFF200" stroke="#FFF200" stroke-width="0.3"/>
</svg>
