<svg width="40" height="40" viewBox="0 0 40 40" fill="none" xmlns="http://www.w3.org/2000/svg">
<path d="M22.258 22.2766C21.6363 22.903 20.8776 23.2195 19.9982 23.2195C19.1064 23.2195 18.3432 22.9039 17.7272 22.2753C17.1131 21.6488 16.8031 20.8849 16.8025 20.0002C16.8019 19.1153 17.1117 18.3512 17.7264 17.7246C18.343 17.0961 19.1064 16.7805 19.9982 16.7805C20.8776 16.7805 21.6363 17.097 22.258 17.7234C22.8797 18.3497 23.1939 19.114 23.1939 20C23.1939 20.886 22.8797 21.6503 22.258 22.2766Z" fill="#D20000"/>
<path fill-rule="evenodd" clip-rule="evenodd" d="M16.0904 28.1673L16.5636 32H23.4364L23.9102 28.1625C24.1019 28.0747 24.2928 27.9746 24.483 27.8622C24.6739 27.7495 24.8587 27.6302 25.0372 27.5044L28.5352 29.0051L31.9711 22.9962L28.9389 20.6713C28.9546 20.5786 28.9627 20.4863 28.9627 20.3945V19.6055C28.9627 19.5189 28.9587 19.431 28.9508 19.3418L32 17.0038L28.5645 10.9956L25.0383 12.4957C24.8633 12.3709 24.6847 12.2525 24.5025 12.1405C24.314 12.0245 24.1164 11.9219 23.9096 11.8327L23.4364 8H16.5636L16.0898 11.8375C15.8981 11.9253 15.7072 12.0254 15.517 12.1378C15.3259 12.2506 15.141 12.37 14.9623 12.4959L11.4355 10.9956L8 17.0038L11.0492 19.3418C11.0413 19.431 11.0373 19.5189 11.0373 19.6055V20.3957C11.0373 20.4818 11.0413 20.5693 11.0492 20.6583L8 22.9962L11.4355 29.0044L14.9622 27.5041C15.138 27.6288 15.3167 27.7472 15.4982 27.8593C15.6862 27.9754 15.8837 28.078 16.0904 28.1673ZM21.2696 26.0296L21.4591 25.9801C22.0317 25.8305 22.5608 25.6115 23.0478 25.3237C23.5369 25.0347 23.9842 24.6843 24.3899 24.272L24.5275 24.1322L27.3329 25.3085L28.2069 23.7656L25.7546 21.889L25.8257 21.6874C25.9148 21.4348 25.9776 21.1676 26.0136 20.8852C26.0506 20.5959 26.0691 20.3008 26.0691 20C26.0691 19.6992 26.0506 19.4045 26.0136 19.116C25.9776 18.8344 25.9147 18.5666 25.8255 18.3121L25.7549 18.1108L28.2069 16.2344L27.334 14.6934L24.5248 15.9001L24.3858 15.753C23.9798 15.3232 23.5337 14.965 23.0477 14.6773C22.5615 14.3896 22.0323 14.1702 21.4589 14.0198L21.2676 13.9697L20.8991 10.9268H19.1275L18.7304 13.9704L18.5409 14.0199C17.9685 14.1694 17.4398 14.3887 16.9538 14.6772C16.465 14.9672 16.0169 15.3176 15.6093 15.7288L15.4718 15.8675L12.6671 14.6915L11.7941 16.2327L14.2422 18.0773L14.1763 18.2775C14.0855 18.5535 14.0223 18.8282 13.9862 19.1019C13.9495 19.3804 13.9309 19.6796 13.9309 20C13.9309 20.3001 13.9494 20.5896 13.9862 20.8688C14.0223 21.1425 14.0855 21.4172 14.1763 21.6932L14.2417 21.8919L11.7931 23.7656L12.666 25.3066L15.4752 24.0999L15.6142 24.247C16.0202 24.6768 16.4667 25.0354 16.9536 25.3239C17.4405 25.6124 17.9691 25.8313 18.5406 25.98L18.7323 26.0299L19.1009 29.0732H20.8725L21.2696 26.0296Z" fill="#D20000"/>
</svg>
