<svg width="16" height="16" viewBox="0 0 16 16" fill="none" xmlns="http://www.w3.org/2000/svg">
<path d="M10 3V14H6.95712V12.8009H8.53538V4.20346H6.95712V3H10Z" fill="white"/>
<path d="M4.92597 12.2125C4.67065 12.2125 4.4518 12.1201 4.26942 11.9354C4.08704 11.7507 3.99726 11.5256 4.00006 11.2601C3.99726 11.0004 4.08704 10.7781 4.26942 10.5934C4.4518 10.4087 4.67065 10.3164 4.92597 10.3164C5.17288 10.3164 5.38753 10.4087 5.5699 10.5934C5.75508 10.7781 5.84908 11.0004 5.85188 11.2601C5.84908 11.4361 5.80418 11.5963 5.71721 11.7406C5.63303 11.8849 5.5208 12.0004 5.38051 12.0869C5.24303 12.1706 5.09151 12.2125 4.92597 12.2125ZM4.92597 7.46789C4.67065 7.46789 4.4518 7.37554 4.26942 7.19084C4.08704 7.00325 3.99726 6.77814 4.00006 6.51551C3.99726 6.25577 4.08704 6.03355 4.26942 5.84885C4.4518 5.66126 4.67065 5.56746 4.92597 5.56746C5.17288 5.56746 5.38753 5.66126 5.5699 5.84885C5.75508 6.03355 5.84908 6.25577 5.85188 6.51551C5.84908 6.68867 5.80418 6.8474 5.71721 6.9917C5.63303 7.136 5.5208 7.25144 5.38051 7.33802C5.24303 7.4246 5.09151 7.46789 4.92597 7.46789Z" fill="white"/>
</svg>
