<svg width="26" height="28" viewBox="0 0 26 28" fill="none" xmlns="http://www.w3.org/2000/svg">
<path d="M2.51649 23.4242L2.29152 23.6924L2.55963 23.9173L4.45892 25.511L4.72703 25.736L4.95201 25.4679L10.9252 18.3493C14.8097 20.6451 19.8487 19.9291 22.7889 16.4251C26.0706 12.5141 25.478 6.63236 21.4898 3.28582C17.5016 -0.0607174 11.6063 0.377107 8.32458 4.28806C5.38438 7.79206 5.55425 12.8788 8.48971 16.3056L2.51649 23.4242ZM20.3534 14.3814C18.1899 16.9598 14.2855 17.2637 11.6304 15.0358C8.97531 12.8079 8.59657 8.91009 10.7601 6.3317C12.9236 3.75332 16.828 3.44944 19.4831 5.67731C22.1382 7.90519 22.5169 11.803 20.3534 14.3814Z" fill="#D20000" stroke="#D20000" stroke-width="0.7"/>
</svg>
