<svg width="40" height="32" viewBox="0 0 40 32" fill="none" xmlns="http://www.w3.org/2000/svg">
<path fill-rule="evenodd" clip-rule="evenodd" d="M17.9099 20.8245C22.4934 23.7094 28.6368 22.82 32.2377 18.5286C36.1679 13.8448 35.5812 6.8823 30.9273 2.97728C26.2735 -0.92774 19.3149 -0.296482 15.3848 4.38723C11.7838 8.67868 11.9748 14.8832 15.6117 18.8961L7.92348 28.0586L10.2216 29.987L17.9099 20.8245ZM29.9396 16.6002C27.0814 20.0065 22.0205 20.4656 18.6359 17.6256C15.2513 14.7856 14.8246 9.72194 17.6829 6.3156C20.5412 2.90926 25.602 2.45016 28.9866 5.29018C32.3712 8.13019 32.7979 13.1939 29.9396 16.6002Z" fill="#FFF200"/>
</svg>
