<svg width="22" height="23" viewBox="0 0 22 23" fill="none" xmlns="http://www.w3.org/2000/svg">
<path fill-rule="evenodd" clip-rule="evenodd" d="M9.54909 14.926C12.8724 17.0361 17.2767 16.4652 19.8186 13.436C22.5927 10.1298 22.0979 5.14736 18.7133 2.30734C15.3287 -0.532674 10.336 -0.154797 7.56185 3.15135C5.02 6.1806 5.22254 10.6171 7.87772 13.5236L2.45073 19.9912L4.1221 21.3936L9.54909 14.926ZM18.1472 12.0335C16.1296 14.438 12.4986 14.7128 10.037 12.6473C7.5755 10.5819 7.21563 6.95827 9.23322 4.5538C11.2508 2.14933 14.8819 1.87451 17.3434 3.93997C19.8049 6.00544 20.1648 9.62904 18.1472 12.0335Z" fill="#FFF200"/>
</svg>
