<svg width="26" height="28" viewBox="0 0 26 28" fill="none" xmlns="http://www.w3.org/2000/svg">
<path d="M23.4835 24.4242L23.7085 24.6924L23.4404 24.9173L21.5411 26.511L21.273 26.736L21.048 26.4679L15.0748 19.3493C11.1903 21.6451 6.15131 20.9291 3.2111 17.4251C-0.0705782 13.5141 0.521955 7.63236 4.5102 4.28582C8.49845 0.939283 14.3937 1.37711 17.6754 5.28806C20.6156 8.79206 20.4458 13.8788 17.5103 17.3056L23.4835 24.4242ZM5.64662 15.3814C7.81014 17.9598 11.7145 18.2637 14.3696 16.0358C17.0247 13.8079 17.4034 9.91009 15.2399 7.3317C13.0764 4.75332 9.17198 4.44944 6.5169 6.67731C3.86183 8.90519 3.4831 12.803 5.64662 15.3814Z" fill="#D20000" stroke="#D20000" stroke-width="0.7"/>
</svg>
