<svg width="23" height="24" viewBox="0 0 23 24" fill="none" xmlns="http://www.w3.org/2000/svg">
<path fill-rule="evenodd" clip-rule="evenodd" d="M12.9538 15.8544C9.6305 17.9646 5.22621 17.3936 2.68437 14.3644C-0.0898192 11.0582 0.405015 6.07577 3.78961 3.23575C7.17421 0.395739 12.1669 0.773616 14.9411 4.07977C17.4829 7.10902 17.2804 11.5455 14.6252 14.452L20.0522 20.9196L18.3808 22.322L12.9538 15.8544ZM4.35574 12.9619C6.37333 15.3664 10.0044 15.6412 12.4659 13.5758C14.9274 11.5103 15.2873 7.88668 13.2697 5.48221C11.2521 3.07774 7.62108 2.80292 5.15955 4.86839C2.69803 6.93385 2.33815 10.5575 4.35574 12.9619Z" fill="#FFF200"/>
</svg>
