<svg width="168" height="169" viewBox="0 0 168 169" fill="none" xmlns="http://www.w3.org/2000/svg">
<g clip-path="url(#clip0_1011_658)">
<path fill-rule="evenodd" clip-rule="evenodd" d="M168 5.95557H0V173.956H168V5.95557ZM113.499 119.82C116.271 104.952 121.731 72.6956 122.991 59.4236C123.035 58.8044 123.01 58.092 122.988 57.4827C122.968 56.9348 122.951 56.4702 122.991 56.2316C122.907 55.5596 122.655 54.6356 121.815 53.9636C120.807 53.1236 119.211 52.9556 118.539 52.9556C115.347 52.9556 110.559 54.6356 87.2072 64.3796C79.0592 67.7396 62.7632 74.7956 38.2352 85.4636C34.2872 87.0596 32.1872 88.5716 32.0192 90.0836C31.718 92.7195 34.9954 93.7349 39.4906 95.1275C40.0091 95.2881 40.5439 95.4538 41.0912 95.6276C45.3752 97.0556 51.0872 98.6516 54.1112 98.7356C56.7992 98.8196 59.8232 97.6436 63.1832 95.3756C86.1152 79.9196 97.8752 72.1076 98.6312 71.9396C98.6971 71.9302 98.764 71.9197 98.8316 71.9091C99.3676 71.8253 99.9476 71.7346 100.395 72.1076C100.583 72.3064 100.719 72.548 100.793 72.8115C100.866 73.075 100.874 73.3524 100.815 73.6196C100.482 75.0205 86.8495 87.6537 80.6213 93.4256C79.0073 94.9213 77.8905 95.9562 77.6312 96.2156C76.9856 96.8725 76.3293 97.4958 75.6973 98.0961C71.6423 101.947 68.5885 104.848 75.7832 109.572C79.3329 111.91 82.1559 113.834 85.0058 115.775C87.8882 117.739 90.7982 119.722 94.5152 122.172C95.4591 122.795 96.3624 123.439 97.2427 124.067C100.75 126.567 103.893 128.807 107.787 128.472C109.971 128.22 112.323 126.12 113.499 119.82Z" fill="#FFF200"/>
</g>
<defs>
<clipPath id="clip0_1011_658">
<rect width="168" height="168" fill="white" transform="translate(0 0.955566)"/>
</clipPath>
</defs>
</svg>
